# xmcd
#
# Track frame offsets:
#	150
#	20860
#	39885
#	55637
#	73725
#	92679
#	108950
#	128752
#	144822
#	161385
#	182095
#	201122
#	216872
#	234960
#	253917
#	270185
#	289987
#	306132
#	322770
#
# Disc length: 4469 seconds
#
# Revision: 1
# Processed by: cddbd v1.5.2PL0 Copyright (c) Steve Scherf et al.
# Submitted via: audiograbber 1.83.01
#
DISCID=02117313
DTITLE=Various Artist - THC9912
DYEAR=1900
DGENRE=
TTITLE0=w vocal - w vocal
TTITLE1=w vocal - w vocal
TTITLE2=w vocal - w vocal
TTITLE3=w vocal - w vocal
TTITLE4=w vocal - w vocal
TTITLE5=w vocal - w vocal
TTITLE6=w vocal - w vocal
TTITLE7=w vocal - w vocal
TTITLE8=w vocal - w vocal
TTITLE9=Brooks, Garth as Chris Gaines - It Don't Matter To The Sun
TTITLE10=Black, Clint - When I Said I Do
TTITLE11=Rimes, LeAnn - Big Deal
TTITLE12=Paisley, Brad - He Didn't Have To Be
TTITLE13=Allan, Gary - Smoke Rings In The Dark
TTITLE14=McEntire, Reba - What Do You Say
TTITLE15=Dixie Chicks, The - Goodbye Earl
TTITLE16=SheDaisy - This Woman Needs
TTITLE17=Lonestar - Smile
TTITLE18=McCready, Mindy - All I Want Is Everything
EXTD=
EXTT0=
EXTT1=
EXTT2=
EXTT3=
EXTT4=
EXTT5=
EXTT6=
EXTT7=
EXTT8=
EXTT9=
EXTT10=
EXTT11=
EXTT12=
EXTT13=
EXTT14=
EXTT15=
EXTT16=
EXTT17=
EXTT18=
PLAYORDER=
